<?xml version="1.0" encoding="utf-8"?>
<!-- Generator: Adobe Illustrator 16.0.0, SVG Export Plug-In . SVG Version: 6.00 Build 0)  -->
<!DOCTYPE svg PUBLIC "-//W3C//DTD SVG 1.1//EN" "http://www.w3.org/Graphics/SVG/1.1/DTD/svg11.dtd">
<svg version="1.1" id="Layer_1" xmlns="http://www.w3.org/2000/svg" xmlns:xlink="http://www.w3.org/1999/xlink" x="0px" y="0px"
	 width="612px" height="554px" viewBox="0 0 612 554" enable-background="new 0 0 612 554" xml:space="preserve">
<rect x="8" y="300" fill="#9E4626" width="595" height="51"/>
<rect x="21" y="349" fill="#9E4626" width="16" height="194"/>
<rect x="574" y="349" fill="#9E4626" width="17" height="194"/>
<rect x="37" y="480" fill="#8A3C1E" width="538" height="16"/>
<rect x="8" y="95" fill="#9E4626" width="595" height="26"/>
<rect x="43" y="311" fill="#8A3C1E" width="97" height="31"/>
<rect x="469" y="311" fill="#8A3C1E" width="97" height="31"/>
<rect x="151" y="311" fill="#8A3C1E" width="309" height="31"/>
<g>
	<rect x="290" y="322" fill="#562516" width="31" height="11"/>
	<polygon fill="#C1812B" points="317,324 317,330 294,330 294,324 293,324 293,331 294.798,331 317.711,331 318,331 318,324 	"/>
</g>
<g>
	<rect x="75" y="322" fill="#562516" width="31" height="11"/>
	<polygon fill="#C1812B" points="102,324 102,330 79,330 79,324 78,324 78,331 79.798,331 102.711,331 103,331 103,324 	"/>
</g>
<g>
	<rect x="502" y="322" fill="#562516" width="31" height="11"/>
	<polygon fill="#C1812B" points="529,324 529,330 506,330 506,324 505,324 505,331 506.798,331 529.711,331 530,331 530,324 	"/>
</g>
<path fill="#E5E5E5" d="M404,264.952c0,7.022-5.373,13.048-12,13.048H219c-6.627,0-12-6.025-12-13.048v-93.238
	c0-7.022,5.373-12.714,12-12.714h173c6.627,0,12,5.692,12,12.714V264.952z"/>
<path fill="#101010" d="M404,262H208v-89.063c0-7.697,5.345-13.937,11.939-13.937h172.122c6.594,0,11.939,6.239,11.939,13.937V262z"
	/>
<rect x="216" y="167" fill="#252526" width="179" height="86"/>
<polygon fill="#D1D2D1" points="331,300 281.667,300 286,278 326,278 "/>
<polygon fill="#E5E5E5" points="333.282,300 279.384,300 280.675,295 331.793,295 "/>
<polygon fill="#454545" points="216,237 216,167 357,167 "/>
<g>
	<rect x="447" y="144" fill="#EAD8B0" stroke="#825221" stroke-width="4" stroke-miterlimit="10" width="122" height="75"/>
	<g>
		
			<rect x="457" y="154" transform="matrix(0.9904 -0.1385 0.1385 0.9904 -17.8845 65.95)" fill="#72C053" width="16.001" height="15"/>
		
			<rect x="456.1" y="154.063" transform="matrix(0.9904 -0.1385 0.1385 0.9904 -16.9998 65.7528)" opacity="0.2" fill="#FFFFFF" width="16" height="2"/>
		<circle fill="#393F36" cx="464.447" cy="158.128" r="0.584"/>
	</g>
	<g>
		<rect x="477" y="156" transform="matrix(1 -0.0093 0.0093 1 -1.5056 4.5358)" fill="#5D4DA0" width="16.002" height="15"/>
		
			<rect x="476.94" y="156.001" transform="matrix(1 -0.0093 0.0093 1 -1.4403 4.5206)" opacity="0.2" fill="#FFFFFF" width="16" height="2"/>
		<circle fill="#393F36" cx="484.888" cy="160.084" r="0.584"/>
	</g>
	<g>
		
			<rect x="459" y="209" transform="matrix(0.9673 -0.2536 0.2536 0.9673 -39.6368 125.504)" fill="#0DBAB1" width="16.003" height="15"/>
		
			<rect x="457.352" y="209.213" transform="matrix(0.9673 -0.2536 0.2536 0.9673 -38.0952 124.874)" opacity="0.2" fill="#FFFFFF" width="16" height="1.999"/>
		<circle fill="#393F36" cx="466.056" cy="213.216" r="0.584"/>
	</g>
	<g>
		
			<rect x="468" y="182.001" transform="matrix(0.9678 0.2516 -0.2516 0.9678 62.9861 -113.6598)" fill="#B63D26" width="16.002" height="14.999"/>
		
			<rect x="469.636" y="182.209" transform="matrix(0.9678 0.2516 -0.2516 0.9678 61.4475 -114.2617)" opacity="0.2" fill="#FFFFFF" width="16" height="1.999"/>
		<circle fill="#393F36" cx="476.782" cy="186.173" r="0.584"/>
	</g>
</g>
<g id="lamp">
	<g>
		<path fill="#E1A247" d="M525.955,219.856c-6.267-8.607-7.713-10.678-13.639-19.522c8.147-5.694,16.345-9.148,22.098-0.915
			C540.168,207.653,534.104,214.162,525.955,219.856z"/>
		<g>
			<polygon fill="#A57434" points="519.614,234.644 496.486,201.541 512.366,200.298 526.008,219.821 			"/>
			<circle fill="#EFEB5E" cx="508.433" cy="217.193" r="4.557"/>
			<path fill="#D89C45" d="M519.614,234.644c0,0-7.613-19.182-23.128-33.103c1.205-0.095,15.88-1.243,15.88-1.243l13.642,19.523
				L519.614,234.644z"/>
			
				<rect x="521.878" y="195.318" transform="matrix(0.5733 0.8194 -0.8194 0.5733 387.7215 -342.512)" fill="#B68843" width="1.615" height="11.307"/>
			
				<rect x="524.655" y="199.287" transform="matrix(0.5728 0.8197 -0.8197 0.5728 392.4442 -343.1638)" fill="#B68843" width="1.616" height="11.306"/>
			<polygon fill="#B68843" points="524.255,213.078 523.329,211.753 532.661,205.232 533.555,206.579 			"/>
		</g>
	</g>
	<rect x="546" y="195" transform="matrix(0.9025 -0.4307 0.4307 0.9025 -40.361 257.7316)" fill="#D29C4B" width="6" height="46"/>
	
		<rect x="548" y="242" transform="matrix(0.9427 0.3336 -0.3336 0.9427 119.9697 -168.6346)" fill="#D29C4B" width="6.001" height="46"/>
	<circle fill="#BCBAB7" stroke="#F4B955" stroke-width="4" stroke-miterlimit="10" cx="558.998" cy="239.998" r="5.998"/>
	<circle fill="#BCBAB7" stroke="#F4B955" stroke-width="4" stroke-miterlimit="10" cx="538.998" cy="197.998" r="5.998"/>
	<path fill="#C38F48" d="M560,300c-19,0-22.107,0-38.5,0c0-11,8.619-19.25,19.25-19.25S560,289,560,300z"/>
</g>
<g>
	<g>
		<path fill="none" stroke="#B9904C" stroke-width="4" stroke-miterlimit="10" d="M168.43,268.645c0,0,9.1-3.122,9.1,8.734
			c0,13.864-11.284,8.737-11.284,8.737"/>
		<path fill="#CDA357" d="M170,283.704c0,6.953-4.473,13.296-9.933,13.296h-9.886c-5.46,0-10.182-6.343-10.182-13.296V264
			c0,0,20.167,0,30,0V283.704z"/>
		<path fill="#C39956" d="M150.182,297.227c-5.46,0-10.182-6.343-10.182-13.296V264c2.667,0.06,7.834,0.043,10.007,0
			L150.182,297.227z"/>
	</g>
	<rect x="137" y="297" fill="#77411B" width="37" height="3"/>
</g>
<g>
	<rect x="268" y="25" fill="#31643C" width="13" height="70"/>
	<rect x="268" y="30" fill="#A8A235" width="13" height="3"/>
	<rect x="268" y="87" fill="#A8A235" width="13" height="3"/>
	<rect x="268" y="34" fill="#A8A235" width="13" height="2"/>
	<rect x="268" y="84" fill="#A8A235" width="13" height="2"/>
</g>
<g>
	<rect x="255" y="25" fill="#22492A" width="13" height="70"/>
	<rect x="255" y="30" fill="#918A33" width="13" height="3"/>
	<rect x="255" y="87" fill="#918A33" width="13" height="3"/>
	<rect x="255" y="34" fill="#918A33" width="13" height="2"/>
	<rect x="255" y="84" fill="#918A33" width="13" height="2"/>
</g>
<g>
	<rect x="242" y="25" fill="#31643C" width="13" height="70"/>
	<rect x="242" y="30" fill="#A8A235" width="13" height="3"/>
	<rect x="242" y="87" fill="#A8A235" width="13" height="3"/>
	<rect x="242" y="34" fill="#A8A235" width="13" height="2"/>
	<rect x="242" y="84" fill="#A8A235" width="13" height="2"/>
</g>
<g>
	<rect x="229" y="25" fill="#22492A" width="13" height="70"/>
	<rect x="229" y="30" fill="#918A33" width="13" height="3"/>
	<rect x="229" y="87" fill="#918A33" width="13" height="3"/>
	<rect x="229" y="34" fill="#918A33" width="13" height="2"/>
	<rect x="229" y="84" fill="#918A33" width="13" height="2"/>
</g>
<g>
	<rect x="286" y="36" fill="#304860" width="11" height="59"/>
	<rect x="286" y="42" fill="#A8A235" width="11" height="1"/>
	<rect x="286" y="88" fill="#A8A235" width="11" height="2"/>
	<rect x="286" y="44" fill="#A8A235" width="11" height="2"/>
	<rect x="286" y="86" fill="#A8A235" width="11" height="1"/>
</g>
<rect x="281" y="48" fill="#33A0C6" width="5" height="47"/>
<rect x="166" y="11" fill="#5F3B15" width="20" height="84"/>
<rect x="297" y="75" fill="#5F3B15" width="60" height="20"/>
<rect x="300" y="77" fill="#D3D3D3" width="57" height="16"/>
<g>
	
		<rect x="202.334" y="25.378" transform="matrix(0.9137 0.4063 -0.4063 0.9137 42.5451 -79.6399)" fill="#31643C" width="13" height="70"/>
	
		<rect x="213.914" y="32.837" transform="matrix(0.9137 0.4063 -0.4063 0.9137 32.9617 -86.5884)" fill="#A8A235" width="13" height="3"/>
	
		<rect x="190.753" y="84.92" transform="matrix(0.9137 0.4063 -0.4063 0.9137 52.1242 -72.6864)" fill="#A8A235" width="13" height="3"/>
	
		<rect x="212.492" y="36.535" transform="matrix(0.9137 0.4063 -0.4063 0.9137 34.1402 -85.7376)" fill="#A8A235" width="13" height="2"/>
	
		<rect x="192.175" y="82.222" transform="matrix(0.9137 0.4063 -0.4063 0.9137 50.9553 -73.5474)" fill="#A8A235" width="13" height="2"/>
</g>
<g>
	<line fill="none" stroke="#C18453" stroke-width="3" stroke-miterlimit="10" x1="317.182" y1="67.472" x2="313.541" y2="73.765"/>
	<line fill="none" stroke="#C18453" stroke-width="3" stroke-miterlimit="10" x1="332.747" y1="67.472" x2="336.388" y2="73.765"/>
	<circle fill="#E5E5E5" stroke="#C4792E" stroke-width="4" stroke-miterlimit="10" cx="324.918" cy="55.25" r="13.804"/>
	
		<line fill="none" stroke="#353434" stroke-width="2" stroke-linecap="round" stroke-miterlimit="10" x1="324.918" y1="54.955" x2="324.918" y2="48.584"/>
	
		<line fill="none" stroke="#353434" stroke-width="2" stroke-linecap="round" stroke-miterlimit="10" x1="319.582" y1="63.096" x2="324.918" y2="55.25"/>
	<circle fill="#434343" cx="324.918" cy="55.25" r="1.82"/>
	<circle fill="#AD6828" cx="314.447" cy="72.129" r="2.633"/>
	<circle fill="#AD6828" cx="335.482" cy="72.129" r="2.633"/>
	<path fill="none" stroke="#C18453" stroke-width="3" stroke-miterlimit="10" d="M314.617,41.872c0,0,2.564-4.209,4.727-4.209
		c1.014,0,3.406-1.668,5.574-1.668c2.455,0,4.709,1.668,5.916,1.668c2.275,0,5.461,5.148,5.461,5.148"/>
	<path fill="#A8642A" d="M317.945,39.887c1.238,1.84-7.246,7.55-8.484,5.71c-1.238-1.84-0.389-4.678,1.954-6.255
		C313.758,37.766,316.707,38.047,317.945,39.887z"/>
	<path fill="#A8642A" d="M332.221,39.887c-1.238,1.84,7.245,7.55,8.484,5.71c1.238-1.84,0.389-4.678-1.955-6.255
		C336.408,37.766,333.459,38.047,332.221,39.887z"/>
</g>
<g>
	<path fill="#C04E27" d="M400,81.548C400,85.191,393.977,95,386.549,95h-12.331c-7.43,0-13.452-9.528-13.452-13.452
		s8.127-8.308,8.127-15.875c0-7.566-3.924-17.754-3.924-17.754c10.65,0.362,20.459,0.362,31.107,0c0,0-4.483,11.029-4.483,17.754
		C391.593,72.399,400,77.905,400,81.548z"/>
	<path fill="#AF4525" d="M400,81.548C398.825,85.305,393.977,95,386.549,95h-12.331c-7.43,0-13.452-8.968-13.452-13.452
		C388.229,87.153,371.976,86.032,400,81.548z"/>
	<path fill="#C25F44" d="M368.893,66c0-8-3.924-17.917-3.924-17.917c10.65,0.362,20.459,0.444,31.107,0.082
		c0,0-4.483,10.836-4.483,17.836S368.893,74,368.893,66z"/>
	<path fill="#AE4D36" d="M366.69,53.154c-0.895-3.038-1.722-5.144-1.722-5.144c10.65,0.362,20.459,0.407,31.107,0.045
		c0,0-0.773,1.911-1.679,4.629C393.124,56.507,367.744,56.734,366.69,53.154z"/>
</g>
<g>
	<path fill="#5BC5C8" stroke="#5BC5C7" stroke-width="3" stroke-miterlimit="10" d="M421.581,76.919
		c-1.887-2.039-2.83-4.887-2.83-8.543c0-4.242,1.441-8.214,4.324-11.918c2.883-3.703,6.422-5.555,10.616-5.555
		c2.461,0,4.371,0.68,5.73,2.039c1.031,1.055,1.723,2.262,2.074,3.621l1.266-4.43h6.645l-4.5,15.258
		c-0.352,1.243-0.604,2.162-0.756,2.76s-0.229,1.12-0.229,1.564c0,0.703,0.234,1.366,0.703,1.986
		c0.469,0.621,1.219,0.932,2.25,0.932c2.016,0,4.037-1.318,6.064-3.955s3.041-6.135,3.041-10.494c0-6.445-2.766-11.074-8.297-13.887
		c-3.469-1.781-7.371-2.672-11.707-2.672c-7.968,0-14.366,2.438-19.194,7.312c-4.359,4.407-6.539,9.691-6.539,15.855
		c0,6.844,2.555,12.27,7.664,16.277c4.523,3.539,10.043,5.309,16.558,5.309c4.453,0,8.613-0.82,12.48-2.461
		c2.109-0.867,4.289-2.097,6.539-3.691l0.844-0.598l2.566,3.938c-3.328,2.579-6.932,4.541-10.811,5.889s-7.904,2.021-12.076,2.021
		c-9.726,0-17.261-3.023-22.604-9.07c-4.43-5.015-6.645-10.957-6.645-17.824c0-7.687,2.766-14.203,8.297-19.547
		c5.812-5.648,13.254-8.473,22.323-8.473c7.383,0,13.5,1.934,18.352,5.801c5.109,4.078,7.664,9.492,7.664,16.242
		c0,5.321-1.617,9.885-4.852,13.693c-3.234,3.809-6.926,5.713-11.074,5.713c-2.156,0-3.814-0.609-4.975-1.828
		c-1.16-1.218-1.74-2.473-1.74-3.762c0-0.164,0.006-0.346,0.018-0.545c0.012-0.199,0.029-0.416,0.053-0.65
		c-0.891,1.688-1.887,3.036-2.988,4.043c-1.992,1.805-4.383,2.707-7.171,2.707C425.829,79.978,423.468,78.958,421.581,76.919z
		 M438.367,56.986c-0.75-0.844-1.758-1.266-3.023-1.266c-2.438,0-4.535,1.518-6.292,4.553c-1.758,3.036-2.637,5.971-2.637,8.807
		c0,1.711,0.393,3.094,1.178,4.148s1.893,1.582,3.321,1.582c2.508,0,4.564-1.904,6.17-5.713c1.605-3.809,2.408-6.803,2.408-8.982
		C439.492,58.873,439.117,57.83,438.367,56.986z"/>
</g>
<g>
	
		<line fill="none" stroke="#DE5E37" stroke-width="3" stroke-linecap="round" stroke-miterlimit="10" x1="447" y1="260" x2="453" y2="286.5"/>
	<g>
		
			<line fill="none" stroke="#DBD237" stroke-width="3" stroke-linecap="round" stroke-miterlimit="10" x1="458.308" y1="292.135" x2="463.799" y2="263.384"/>
		<g>
			
				<rect x="462.393" y="261.393" transform="matrix(0.9818 0.1898 -0.1898 0.9818 58.3255 -83.2637)" fill="#D87A38" width="3" height="3"/>
			
				<rect x="462.298" y="262.384" transform="matrix(0.9818 0.1898 -0.1898 0.9818 58.417 -83.2368)" fill="#A3A1A1" width="3" height="2"/>
		</g>
	</g>
	
		<rect x="447.349" y="260.525" transform="matrix(0.9775 -0.2107 0.2107 0.9775 -45.581 100.3033)" fill="#943724" width="1.001" height="7"/>
	<g>
		
			<rect x="455.882" y="259.993" transform="matrix(0.993 0.1179 -0.1179 0.993 34.9507 -52.0292)" fill="#726E6D" width="2.999" height="19"/>
		<g>
			
				<rect x="456.118" y="261.006" transform="matrix(0.993 0.1178 -0.1178 0.993 34.706 -52.0547)" fill="#474647" width="3" height="13.001"/>
			
				<rect x="457.236" y="262.013" transform="matrix(0.9931 0.1172 -0.1172 0.9931 34.3839 -51.8019)" fill="#827E7E" width="1" height="9"/>
			
				<rect x="458.121" y="258.066" transform="matrix(0.993 0.1181 -0.1181 0.993 33.8191 -52.369)" fill="#827E7E" width="1" height="2"/>
		</g>
	</g>
	<rect x="445" y="274" fill="#1E63AF" width="22" height="26"/>
</g>
<g>
	<rect x="53.5" y="141.5" fill="#EADBC1" stroke="#262626" stroke-width="5" stroke-miterlimit="10" width="84" height="68"/>
	<line fill="none" stroke="#BCB8B7" stroke-width="3" stroke-miterlimit="10" x1="70" y1="165.5" x2="119" y2="165.5"/>
	<line fill="none" stroke="#BCB8B7" stroke-width="3" stroke-miterlimit="10" x1="70" y1="169.5" x2="119" y2="169.5"/>
	<line fill="none" stroke="#BCB8B7" stroke-width="3" stroke-miterlimit="10" x1="70" y1="173.5" x2="119" y2="173.5"/>
	<line fill="none" stroke="#BCB8B7" stroke-width="3" stroke-miterlimit="10" x1="70" y1="177.5" x2="119" y2="177.5"/>
	<line fill="none" stroke="#BCB8B7" stroke-width="3" stroke-miterlimit="10" x1="79" y1="155.5" x2="111" y2="155.5"/>
	<line fill="none" stroke="#BCB8B7" stroke-width="3" stroke-miterlimit="10" x1="97" y1="192.5" x2="120" y2="192.5"/>
	<polygon fill="#E9D354" points="86.096,196.816 82.908,194.998 85.045,197.98 82.324,195.52 83.77,198.893 81.641,195.904 
		82.327,199.508 80.89,196.132 80.785,199.8 80.107,196.194 79.218,199.753 79.331,196.086 77.697,199.371 78.596,195.814 
		76.293,198.671 77.936,195.39 75.073,197.685 77.383,194.834 74.094,196.46 76.963,194.172 73.4,195.053 76.693,193.435 
		73.025,193.53 76.59,192.658 72.987,191.961 76.656,191.876 73.287,190.422 76.888,191.127 73.91,188.983 77.275,190.446 
		74.829,187.711 77.801,189.863 75.999,186.667 78.439,189.407 77.366,185.898 79.16,189.099 78.867,185.442 79.931,188.954 
		80.431,185.319 80.715,188.977 81.984,185.535 81.475,189.168 83.455,186.079 82.177,189.518 84.774,186.927 82.787,190.011 
		85.881,188.039 83.276,190.624 86.723,189.363 83.623,191.327 87.26,190.837 83.811,192.088 87.467,192.392 83.83,192.873 
		87.336,193.954 83.68,193.643 86.871,195.452 83.368,194.362 	"/>
</g>
</svg>
